# This file uses centimeters as units for non-parametric coordinates.

mtllib cubedoor.mtl
g default
v -0.552854 0.213711 0.529967
v -0.552854 0.213711 -0.529967
v -0.621519 -0.040259 0.621519
v -0.372911 -0.040259 0.621519
v -0.124304 -0.040259 0.621519
v 0.124304 -0.040259 0.621519
v 0.372911 -0.040259 0.621519
v 0.621519 -0.040259 0.621519
v -0.621519 0.208348 0.621519
v -0.372911 0.208348 0.621519
v -0.124304 0.208348 0.621519
v 0.124304 0.208348 0.621519
v 0.372911 0.208348 0.621519
v 0.621519 0.208348 0.621519
v -0.621519 0.213711 0.621519
v -0.372911 0.213711 0.621519
v -0.124304 0.213711 0.621519
v 0.124304 0.213711 0.621519
v 0.372911 0.213711 0.621519
v 0.621519 0.213711 0.621519
v -0.621519 0.213711 -0.621519
v -0.372911 0.213711 -0.621519
v -0.124304 0.213711 -0.621519
v 0.124304 0.213711 -0.621519
v 0.372911 0.213711 -0.621519
v 0.621519 0.213711 -0.621519
v -0.621519 0.208348 -0.621519
v -0.372911 0.208348 -0.621519
v -0.124304 0.208348 -0.621519
v 0.124304 0.208348 -0.621519
v 0.372911 0.208348 -0.621519
v 0.621519 0.208348 -0.621519
v -0.621519 -0.040259 -0.621519
v -0.372911 -0.040259 -0.621519
v -0.124304 -0.040259 -0.621519
v 0.124304 -0.040259 -0.621519
v 0.372911 -0.040259 -0.621519
v 0.621519 -0.040259 -0.621519
v -0.621519 -0.040259 -0.372911
v -0.372911 -0.040259 -0.372911
v -0.124304 -0.040259 -0.372911
v 0.124304 -0.040259 -0.372911
v 0.372911 -0.040259 -0.372911
v 0.621519 -0.040259 -0.372911
v -0.621519 -0.040259 -0.124304
v -0.372911 -0.040259 -0.124304
v -0.124304 -0.040259 -0.124304
v 0.124304 -0.040259 -0.124304
v 0.372911 -0.040259 -0.124304
v 0.621519 -0.040259 -0.124304
v -0.621519 -0.040259 0.124304
v -0.372911 -0.040259 0.124304
v -0.124304 -0.040259 0.124304
v 0.124304 -0.040259 0.124304
v 0.372911 -0.040259 0.124304
v 0.621519 -0.040259 0.124304
v -0.621519 -0.040259 0.372911
v -0.372911 -0.040259 0.372911
v -0.124304 -0.040259 0.372911
v 0.124304 -0.040259 0.372911
v 0.372911 -0.040259 0.372911
v 0.621519 -0.040259 0.372911
v 0.621519 0.208348 -0.372911
v 0.621519 0.208348 -0.124304
v 0.621519 0.208348 0.124304
v 0.621519 0.208348 0.372911
v 0.621519 0.213711 -0.372911
v 0.621519 0.213711 -0.124304
v 0.621519 0.213711 0.124304
v 0.621519 0.213711 0.372911
v -0.621519 0.208348 -0.372911
v -0.621519 0.208348 -0.124304
v -0.621519 0.208348 0.124304
v -0.621519 0.208348 0.372911
v -0.621519 0.213711 -0.372911
v -0.621519 0.213711 -0.124304
v -0.621519 0.213711 0.124304
v -0.621519 0.213711 0.372911
v -0.186645 0.213711 -0.529968
v 0.186645 0.213711 -0.529968
v 0.552546 0.213711 -0.529967
v -0.552854 0.213711 -0.166790
v 0.552546 0.213711 -0.171589
v 0.552546 0.213711 0.169800
v -0.552854 0.213711 0.174971
v -0.186645 0.213711 0.529968
v 0.186645 0.213711 0.529968
v 0.552546 0.213711 0.529967
v -0.452092 0.213711 0.621519
v 0.005116 -0.040259 0.621519
v 0.005116 -0.040259 0.372911
v 0.005116 -0.040259 0.124304
v 0.005116 -0.040259 -0.124304
v 0.005116 -0.040259 -0.372911
v 0.005116 -0.040259 -0.621519
v 0.005116 0.208348 -0.621519
v 0.005116 0.213711 -0.621519
v 0.007682 0.213711 -0.529968
v 0.007682 0.213711 0.529968
v 0.005116 0.213711 0.621519
v 0.005116 0.208348 0.621519
v -0.559935 -0.009049 -0.186645
v -0.186645 -0.009049 -0.186645
v -0.186645 -0.009049 -0.529968
v -0.559935 -0.009049 -0.529968
v 0.007682 -0.009049 -0.529968
v 0.186645 -0.009049 -0.529968
v 0.007682 -0.009049 -0.186645
v 0.186645 -0.009049 -0.186645
v 0.559935 -0.009049 -0.529968
v 0.559935 -0.009049 -0.186645
v -0.559935 -0.009049 0.529968
v -0.186645 -0.009049 0.529968
v -0.186645 -0.009049 0.186645
v -0.559935 -0.009049 0.186645
v 0.186645 -0.009049 0.186645
v 0.007682 -0.009049 0.186645
v 0.007682 -0.009049 0.529968
v 0.186645 -0.009049 0.529968
v 0.559935 -0.009049 0.186645
v 0.559935 -0.009049 0.529968
vt 0.375000 0.000000
vt 0.425000 0.000000
vt 0.425000 0.050000
vt 0.375000 0.050000
vt 0.475000 0.000000
vt 0.475000 0.050000
vt 0.501029 0.050000
vt 0.501029 0.000000
vt 0.525000 0.000000
vt 0.525000 0.050000
vt 0.575000 0.000000
vt 0.575000 0.050000
vt 0.625000 0.000000
vt 0.625000 0.050000
vt 0.425000 0.100000
vt 0.409075 0.100000
vt 0.375000 0.100000
vt 0.475000 0.100000
vt 0.501029 0.100000
vt 0.525000 0.100000
vt 0.575000 0.100000
vt 0.625000 0.100000
vt 0.375000 0.650000
vt 0.425000 0.650000
vt 0.425000 0.700000
vt 0.375000 0.700000
vt 0.475000 0.650000
vt 0.475000 0.700000
vt 0.501029 0.700000
vt 0.501029 0.650000
vt 0.525000 0.650000
vt 0.525000 0.700000
vt 0.575000 0.650000
vt 0.575000 0.700000
vt 0.625000 0.650000
vt 0.625000 0.700000
vt 0.425000 0.750000
vt 0.375000 0.750000
vt 0.475000 0.750000
vt 0.501029 0.750000
vt 0.525000 0.750000
vt 0.575000 0.750000
vt 0.625000 0.750000
vt 0.425000 0.800000
vt 0.375000 0.800000
vt 0.475000 0.800000
vt 0.501029 0.800000
vt 0.525000 0.800000
vt 0.575000 0.800000
vt 0.625000 0.800000
vt 0.425000 0.850000
vt 0.375000 0.850000
vt 0.475000 0.850000
vt 0.501029 0.850000
vt 0.525000 0.850000
vt 0.575000 0.850000
vt 0.625000 0.850000
vt 0.425000 0.900000
vt 0.375000 0.900000
vt 0.475000 0.900000
vt 0.501029 0.900000
vt 0.525000 0.900000
vt 0.575000 0.900000
vt 0.625000 0.900000
vt 0.425000 0.950000
vt 0.375000 0.950000
vt 0.475000 0.950000
vt 0.501029 0.950000
vt 0.525000 0.950000
vt 0.575000 0.950000
vt 0.625000 0.950000
vt 0.425000 1.000000
vt 0.375000 1.000000
vt 0.475000 1.000000
vt 0.501029 1.000000
vt 0.525000 1.000000
vt 0.575000 1.000000
vt 0.625000 1.000000
vt 0.825000 0.000000
vt 0.875000 0.000000
vt 0.875000 0.050000
vt 0.825000 0.050000
vt 0.775000 0.000000
vt 0.775000 0.050000
vt 0.725000 0.000000
vt 0.725000 0.050000
vt 0.675000 0.000000
vt 0.675000 0.050000
vt 0.875000 0.100000
vt 0.825000 0.100000
vt 0.775000 0.100000
vt 0.725000 0.100000
vt 0.675000 0.100000
vt 0.125000 0.000000
vt 0.175000 0.000000
vt 0.175000 0.050000
vt 0.125000 0.050000
vt 0.225000 0.000000
vt 0.225000 0.050000
vt 0.275000 0.000000
vt 0.275000 0.050000
vt 0.325000 0.000000
vt 0.325000 0.050000
vt 0.175000 0.100000
vt 0.125000 0.100000
vt 0.225000 0.100000
vt 0.275000 0.100000
vt 0.325000 0.100000
vt 0.315889 0.371187
vt 0.501029 0.540000
vt 0.525000 0.540000
vt 0.475000 0.540000
vt 0.642739 0.461875
vt 0.405726 0.395397
vt 0.425000 0.430000
vt 0.475000 0.430000
vt 0.475000 0.540000
vt 0.425000 0.540000
vt 0.525000 0.540000
vt 0.501029 0.540000
vt 0.501029 0.430000
vt 0.525000 0.430000
vt 0.575000 0.540000
vt 0.575000 0.430000
vt 0.590146 0.420355
vt 0.389172 0.149170
vt 0.416905 0.299927
vt 0.425000 0.210000
vt 0.475000 0.210000
vt 0.475000 0.320000
vt 0.425000 0.320000
vt 0.525000 0.320000
vt 0.501029 0.320000
vt 0.501029 0.210000
vt 0.525000 0.210000
vt 0.575000 0.320000
vt 0.575000 0.210000
vt 0.586617 0.306254
vt 0.609985 0.152505
vt 0.475000 0.210000
vt 0.525000 0.210000
vt 0.501029 0.210000
vn 0.000000 0.000000 1.000000
vn 0.000000 0.000000 1.000000
vn 0.000000 0.000000 1.000000
vn 0.000000 0.000000 1.000000
vn 0.000000 0.000000 1.000000
vn 0.000000 0.000000 1.000000
vn 0.000000 0.000000 1.000000
vn 0.000000 0.000000 1.000000
vn 0.000000 0.000000 1.000000
vn 0.000000 0.000000 1.000000
vn 0.000000 0.000000 1.000000
vn 0.000000 0.000000 1.000000
vn 0.000000 0.000000 1.000000
vn 0.000000 0.000000 1.000000
vn 0.000000 0.000000 1.000000
vn 0.000000 0.000000 1.000000
vn 0.000000 0.000000 1.000000
vn 0.000000 0.000000 1.000000
vn 0.000000 0.000000 1.000000
vn 0.000000 0.000000 1.000000
vn 0.000000 0.000000 1.000000
vn 0.000000 0.000000 1.000000
vn 0.000000 0.000000 -1.000000
vn 0.000000 0.000000 -1.000000
vn 0.000000 0.000000 -1.000000
vn 0.000000 0.000000 -1.000000
vn 0.000000 0.000000 -1.000000
vn 0.000000 0.000000 -1.000000
vn 0.000000 0.000000 -1.000000
vn 0.000000 0.000000 -1.000000
vn 0.000000 0.000000 -1.000000
vn 0.000000 0.000000 -1.000000
vn 0.000000 0.000000 -1.000000
vn 0.000000 0.000000 -1.000000
vn 0.000000 0.000000 -1.000000
vn 0.000000 0.000000 -1.000000
vn 0.000000 0.000000 -1.000000
vn 0.000000 0.000000 -1.000000
vn 0.000000 0.000000 -1.000000
vn 0.000000 0.000000 -1.000000
vn 0.000000 0.000000 -1.000000
vn 0.000000 0.000000 -1.000000
vn 0.000000 0.000000 -1.000000
vn 0.000000 -1.000000 0.000000
vn 0.000000 -1.000000 0.000000
vn 0.000000 -1.000000 0.000000
vn 0.000000 -1.000000 0.000000
vn 0.000000 -1.000000 0.000000
vn 0.000000 -1.000000 0.000000
vn 0.000000 -1.000000 0.000000
vn 0.000000 -1.000000 0.000000
vn 0.000000 -1.000000 0.000000
vn 0.000000 -1.000000 0.000000
vn 0.000000 -1.000000 0.000000
vn 0.000000 -1.000000 0.000000
vn 0.000000 -1.000000 0.000000
vn 0.000000 -1.000000 0.000000
vn 0.000000 -1.000000 0.000000
vn 0.000000 -1.000000 0.000000
vn 0.000000 -1.000000 0.000000
vn 0.000000 -1.000000 0.000000
vn 0.000000 -1.000000 0.000000
vn 0.000000 -1.000000 0.000000
vn 0.000000 -1.000000 0.000000
vn 0.000000 -1.000000 0.000000
vn 0.000000 -1.000000 0.000000
vn 0.000000 -1.000000 0.000000
vn 0.000000 -1.000000 0.000000
vn 0.000000 -1.000000 0.000000
vn 0.000000 -1.000000 0.000000
vn 0.000000 -1.000000 0.000000
vn 0.000000 -1.000000 0.000000
vn 0.000000 -1.000000 0.000000
vn 0.000000 -1.000000 0.000000
vn 0.000000 -1.000000 0.000000
vn 0.000000 -1.000000 0.000000
vn 0.000000 -1.000000 0.000000
vn 0.000000 -1.000000 0.000000
vn 0.000000 -1.000000 0.000000
vn 0.000000 -1.000000 0.000000
vn 0.000000 -1.000000 0.000000
vn 0.000000 -1.000000 0.000000
vn 0.000000 -1.000000 0.000000
vn 0.000000 -1.000000 0.000000
vn 0.000000 -1.000000 0.000000
vn 1.000000 0.000000 0.000000
vn 1.000000 0.000000 0.000000
vn 1.000000 0.000000 0.000000
vn 1.000000 0.000000 0.000000
vn 1.000000 0.000000 0.000000
vn 1.000000 0.000000 0.000000
vn 1.000000 0.000000 0.000000
vn 1.000000 0.000000 0.000000
vn 1.000000 0.000000 0.000000
vn 1.000000 0.000000 0.000000
vn 1.000000 0.000000 0.000000
vn 1.000000 0.000000 0.000000
vn 1.000000 0.000000 0.000000
vn 1.000000 0.000000 0.000000
vn 1.000000 0.000000 0.000000
vn 1.000000 0.000000 0.000000
vn 1.000000 0.000000 0.000000
vn 1.000000 0.000000 0.000000
vn -1.000000 0.000000 0.000000
vn -1.000000 0.000000 0.000000
vn -1.000000 0.000000 0.000000
vn -1.000000 0.000000 0.000000
vn -1.000000 0.000000 0.000000
vn -1.000000 0.000000 0.000000
vn -1.000000 0.000000 0.000000
vn -1.000000 0.000000 0.000000
vn -1.000000 0.000000 0.000000
vn -1.000000 0.000000 0.000000
vn -1.000000 0.000000 0.000000
vn -1.000000 0.000000 0.000000
vn -1.000000 0.000000 0.000000
vn -1.000000 0.000000 0.000000
vn -1.000000 0.000000 0.000000
vn -1.000000 0.000000 0.000000
vn -1.000000 0.000000 0.000000
vn -1.000000 0.000000 0.000000
vn 0.000003 1.000000 0.000000
vn 0.000001 1.000000 -0.000000
vn 0.000000 1.000000 0.000000
vn 0.000000 1.000000 -0.000000
vn 0.000000 1.000000 0.000000
vn 0.000000 1.000000 0.000000
vn 0.000000 1.000000 0.000000
vn 0.000000 1.000000 0.000000
vn 0.000000 1.000000 0.000000
vn 0.000000 1.000000 0.000000
vn -0.000001 1.000000 -0.000000
vn -0.000000 1.000000 -0.000000
vn -0.000003 1.000000 0.000000
vn -0.000000 1.000000 -0.000000
vn 0.000004 1.000000 0.000000
vn 0.000003 1.000000 0.000000
vn 0.000000 1.000000 -0.000000
vn 0.000000 1.000000 -0.000000
vn 0.000000 1.000000 -0.000000
vn 0.000000 1.000000 -0.000000
vn 0.000000 1.000000 0.000000
vn -0.000000 1.000000 -0.000000
vn -0.000000 1.000000 -0.000000
vn 0.000000 1.000000 0.000000
vn 0.000000 1.000000 0.000000
vn 0.000000 1.000000 0.000000
vn -0.000003 1.000000 0.000000
vn -0.000004 1.000000 0.000000
vn 0.000003 1.000000 -0.000000
vn 0.000001 1.000000 0.000000
vn 0.000003 1.000000 -0.000000
vn 0.000004 1.000000 -0.000000
vn 0.000000 1.000000 0.000000
vn 0.000000 1.000000 0.000000
vn 0.000000 1.000000 0.000000
vn 0.000000 1.000000 0.000000
vn 0.000000 1.000000 0.000000
vn 0.000000 1.000000 0.000000
vn 0.000000 1.000000 0.000000
vn 0.000000 1.000000 0.000000
vn 0.000000 1.000000 0.000000
vn 0.000000 1.000000 0.000000
vn -0.000004 1.000000 -0.000000
vn -0.000003 1.000000 -0.000000
vn -0.000001 1.000000 0.000000
vn -0.000003 1.000000 -0.000000
vn 0.000000 1.000000 0.000000
vn 0.000000 1.000000 0.000000
vn 0.000000 1.000000 0.000000
vn 0.000000 1.000000 -0.000000
vn 0.000000 1.000000 -0.000000
vn 0.000000 1.000000 -0.000000
vn 0.000000 1.000000 -0.000000
vn 0.000000 1.000000 -0.000000
vn 0.000000 1.000000 -0.000000
vn -0.000000 1.000000 0.000000
vn -0.000000 1.000000 0.000000
vn 0.000001 -0.000001 1.000000
vn 0.000001 -0.000001 1.000000
vn 0.000001 -0.000001 1.000000
vn 0.000001 -0.000001 1.000000
vn 0.999495 -0.031771 -0.000000
vn 0.999495 -0.031771 -0.000000
vn 0.999495 -0.031771 -0.000000
vn 0.999495 -0.031771 -0.000000
vn -0.000001 -0.000001 1.000000
vn 0.000000 0.000000 1.000000
vn 0.000000 0.000000 1.000000
vn -0.000001 -0.000001 1.000000
vn -0.000001 -0.000001 1.000000
vn -0.000001 -0.000001 1.000000
vn -0.999450 -0.033154 -0.000000
vn -0.999450 -0.033154 -0.000000
vn -0.999450 -0.033154 -0.000000
vn -0.999450 -0.033154 -0.000000
vn 0.000001 -0.000001 -1.000000
vn 0.000001 -0.000001 -1.000000
vn 0.000001 -0.000001 -1.000000
vn 0.000001 -0.000001 -1.000000
vn 0.999495 -0.031771 0.000000
vn 0.999495 -0.031771 0.000000
vn 0.999495 -0.031771 0.000000
vn 0.999495 -0.031771 0.000000
vn 0.000000 0.000000 -1.000000
vn -0.000001 -0.000001 -1.000000
vn -0.000001 -0.000001 -1.000000
vn 0.000000 0.000000 -1.000000
vn -0.000001 -0.000001 -1.000000
vn -0.000001 -0.000001 -1.000000
vn -0.999450 -0.033154 0.000000
vn -0.999450 -0.033153 0.000000
vn -0.999450 -0.033153 0.000000
vn -0.999450 -0.033154 0.000000
s 1
g pCube4
usemtl blinn1SG
f 3/1/1 4/2/2 10/3/3 9/4/4
f 4/2/2 5/5/5 11/6/6 10/3/3
f 101/7/7 90/8/8 6/9/9 12/10/10
f 6/9/9 7/11/11 13/12/12 12/10/10
f 7/11/11 8/13/13 14/14/14 13/12/12
f 9/4/4 10/3/3 16/15/15 89/16/16 15/17/17
f 10/3/3 11/6/6 17/18/18 16/15/15
f 100/19/19 101/7/7 12/10/10 18/20/20
f 12/10/10 13/12/12 19/21/21 18/20/20
f 13/12/12 14/14/14 20/22/22 19/21/21
s 2
f 21/23/23 22/24/24 28/25/25 27/26/26
f 22/24/24 23/27/27 29/28/28 28/25/25
f 96/29/29 97/30/30 24/31/31 30/32/32
f 24/31/31 25/33/33 31/34/34 30/32/32
f 25/33/33 26/35/35 32/36/36 31/34/34
f 27/26/26 28/25/25 34/37/37 33/38/38
f 28/25/25 29/28/28 35/39/39 34/37/37
f 95/40/40 96/29/29 30/32/32 36/41/41
f 30/32/32 31/34/34 37/42/42 36/41/41
f 31/34/34 32/36/36 38/43/43 37/42/42
s 3
f 33/38/44 34/37/45 40/44/46 39/45/47
f 34/37/45 35/39/48 41/46/49 40/44/46
f 94/47/50 95/40/51 36/41/52 42/48/53
f 36/41/52 37/42/54 43/49/55 42/48/53
f 37/42/54 38/43/56 44/50/57 43/49/55
f 39/45/47 40/44/46 46/51/58 45/52/59
f 40/44/46 41/46/49 47/53/60 46/51/58
f 93/54/61 94/47/50 42/48/53 48/55/62
f 42/48/53 43/49/55 49/56/63 48/55/62
f 43/49/55 44/50/57 50/57/64 49/56/63
f 45/52/59 46/51/58 52/58/65 51/59/66
f 46/51/58 47/53/60 53/60/67 52/58/65
f 92/61/68 93/54/61 48/55/62 54/62/69
f 48/55/62 49/56/63 55/63/70 54/62/69
f 49/56/63 50/57/64 56/64/71 55/63/70
f 51/59/66 52/58/65 58/65/72 57/66/73
f 52/58/65 53/60/67 59/67/74 58/65/72
f 91/68/75 92/61/68 54/62/69 60/69/76
f 54/62/69 55/63/70 61/70/77 60/69/76
f 55/63/70 56/64/71 62/71/78 61/70/77
f 57/66/73 58/65/72 4/72/79 3/73/80
f 58/65/72 59/67/74 5/74/81 4/72/79
f 90/75/82 91/68/75 60/69/76 6/76/83
f 60/69/76 61/70/77 7/77/84 6/76/83
f 61/70/77 62/71/78 8/78/85 7/77/84
s 4
f 44/79/86 38/80/87 32/81/88 63/82/89
f 50/83/90 44/79/86 63/82/89 64/84/91
f 56/85/92 50/83/90 64/84/91 65/86/93
f 62/87/94 56/85/92 65/86/93 66/88/95
f 8/13/96 62/87/94 66/88/95 14/14/97
f 63/82/89 32/81/88 26/89/98 67/90/99
f 64/84/91 63/82/89 67/90/99 68/91/100
f 65/86/93 64/84/91 68/91/100 69/92/101
f 66/88/95 65/86/93 69/92/101 70/93/102
f 14/14/97 66/88/95 70/93/102 20/22/103
s 5
f 33/94/104 39/95/105 71/96/106 27/97/107
f 39/95/105 45/98/108 72/99/109 71/96/106
f 45/98/108 51/100/110 73/101/111 72/99/109
f 51/100/110 57/102/112 74/103/113 73/101/111
f 57/102/112 3/1/114 9/4/115 74/103/113
f 27/97/107 71/96/106 75/104/116 21/105/117
f 71/96/106 72/99/109 76/106/118 75/104/116
f 72/99/109 73/101/111 77/107/119 76/106/118
f 73/101/111 74/103/113 78/108/120 77/107/119
f 74/103/113 9/4/115 15/17/121 78/108/120
s 6
f 75/104/122 2/109/123 22/24/124 21/105/125
f 97/30/126 98/110/127 80/111/128 24/31/129
f 2/109/123 79/112/130 23/27/131 22/24/124
f 24/31/129 80/111/128 81/113/132 25/33/133
f 25/33/133 81/113/132 67/90/134 26/35/135
f 76/106/136 82/114/137 2/109/123 75/104/122
s 8
f 102/115/138 103/116/139 104/117/140 105/118/141
f 107/119/142 106/120/143 108/121/144 109/122/145
f 110/123/146 107/119/142 109/122/145 111/124/147
s 6
f 67/90/134 81/113/132 83/125/148 68/91/149
f 78/108/150 1/126/151 85/127/152 77/107/153
s 8
f 112/128/154 113/129/155 114/130/156 115/131/157
f 116/132/158 117/133/159 118/134/160 119/135/161
f 120/136/162 116/132/158 119/135/161 121/137/163
s 6
f 69/92/164 84/138/165 88/139/166 70/93/167
f 68/91/149 83/125/148 84/138/165 69/92/164
s 8
f 111/124/147 109/122/145 116/132/158 120/136/162
f 109/122/145 108/121/144 117/133/159 116/132/158
f 115/131/157 114/130/156 103/116/139 102/115/138
s 6
f 77/107/153 85/127/152 82/114/137 76/106/136
f 16/15/168 1/126/151 78/108/150 15/17/169 89/16/170
f 16/15/168 17/18/171 86/140/172 1/126/151
f 87/141/173 99/142/174 100/19/175 18/20/176
f 88/139/166 87/141/173 18/20/176 19/21/177
f 70/93/167 88/139/166 19/21/177 20/22/178
s 3
f 59/67/74 91/68/75 90/75/82 5/74/81
f 53/60/67 92/61/68 91/68/75 59/67/74
f 47/53/60 93/54/61 92/61/68 53/60/67
f 41/46/49 94/47/50 93/54/61 47/53/60
f 35/39/48 95/40/51 94/47/50 41/46/49
s 2
f 29/28/28 96/29/29 95/40/40 35/39/39
f 23/27/27 97/30/30 96/29/29 29/28/28
s 6
f 23/27/131 79/112/130 98/110/127 97/30/126
s 8
f 108/121/144 106/120/143 104/117/140 103/116/139
f 117/133/159 108/121/144 103/116/139 114/130/156
f 118/134/160 117/133/159 114/130/156 113/129/155
s 6
f 100/19/175 99/142/174 86/140/172 17/18/171
s 1
f 11/6/6 101/7/7 100/19/19 17/18/18
f 5/5/5 90/8/8 101/7/7 11/6/6
s 11
f 79/112/179 2/109/180 105/118/181 104/117/182
s 12
f 2/109/183 82/114/184 102/115/185 105/118/186
s 11
f 80/111/187 98/110/188 106/120/189 107/119/190
f 81/113/191 80/111/187 107/119/190 110/123/192
s 13
f 83/125/193 81/113/194 110/123/195 111/124/196
s 14
f 1/126/197 86/140/198 113/129/199 112/128/200
s 12
f 85/127/201 1/126/202 112/128/203 115/131/204
s 14
f 99/142/205 87/141/206 119/135/207 118/134/208
f 87/141/206 88/139/209 121/137/210 119/135/207
s 13
f 88/139/211 84/138/212 120/136/213 121/137/214
f 84/138/212 83/125/193 111/124/196 120/136/213
s 12
f 82/114/184 85/127/201 115/131/204 102/115/185
s 11
f 98/110/188 79/112/179 104/117/182 106/120/189
s 14
f 86/140/198 99/142/205 118/134/208 113/129/199
g default
v -0.549992 0.201741 -0.001813
v 0.549992 0.201741 -0.001813
v -0.549992 0.216684 -0.001813
v 0.549992 0.216684 -0.001813
v -0.549992 0.216684 -0.523941
v 0.549992 0.216684 -0.523941
v -0.549992 0.201741 -0.523941
v 0.549992 0.201741 -0.523941
vt 0.375000 0.000000
vt 0.625000 0.000000
vt 0.375000 0.250000
vt 0.625000 0.250000
vt 0.375000 0.500000
vt 0.625000 0.500000
vt 0.375000 0.750000
vt 0.625000 0.750000
vt 0.375000 1.000000
vt 0.625000 1.000000
vt 0.875000 0.000000
vt 0.875000 0.250000
vt 0.125000 0.000000
vt 0.125000 0.250000
vn 0.000000 0.000000 1.000000
vn 0.000000 0.000000 1.000000
vn 0.000000 0.000000 1.000000
vn 0.000000 0.000000 1.000000
vn 0.000000 1.000000 0.000000
vn 0.000000 1.000000 0.000000
vn 0.000000 1.000000 0.000000
vn 0.000000 1.000000 0.000000
vn 0.000000 0.000000 -1.000000
vn 0.000000 0.000000 -1.000000
vn 0.000000 0.000000 -1.000000
vn 0.000000 0.000000 -1.000000
vn 0.000000 -1.000000 0.000000
vn 0.000000 -1.000000 0.000000
vn 0.000000 -1.000000 0.000000
vn 0.000000 -1.000000 0.000000
vn 1.000000 0.000000 0.000000
vn 1.000000 0.000000 0.000000
vn 1.000000 0.000000 0.000000
vn 1.000000 0.000000 0.000000
vn -1.000000 0.000000 0.000000
vn -1.000000 0.000000 0.000000
vn -1.000000 0.000000 0.000000
vn -1.000000 0.000000 0.000000
s off
g pCube5
usemtl blinn2SG
f 122/143/215 123/144/216 125/146/217 124/145/218
f 124/145/219 125/146/220 127/148/221 126/147/222
f 126/147/223 127/148/224 129/150/225 128/149/226
f 128/149/227 129/150/228 123/152/229 122/151/230
f 123/144/231 129/153/232 127/154/233 125/146/234
f 128/155/235 122/143/236 124/145/237 126/156/238
g default
v -0.549992 0.198625 0.528429
v 0.549992 0.198625 0.528429
v -0.549992 0.213568 0.528429
v 0.549992 0.213568 0.528429
v -0.549992 0.213568 0.006301
v 0.549992 0.213568 0.006301
v -0.549992 0.198625 0.006301
v 0.549992 0.198625 0.006301
vt 0.375000 0.000000
vt 0.625000 0.000000
vt 0.375000 0.250000
vt 0.625000 0.250000
vt 0.375000 0.500000
vt 0.625000 0.500000
vt 0.375000 0.750000
vt 0.625000 0.750000
vt 0.375000 1.000000
vt 0.625000 1.000000
vt 0.875000 0.000000
vt 0.875000 0.250000
vt 0.125000 0.000000
vt 0.125000 0.250000
vn 0.000000 0.000000 1.000000
vn 0.000000 0.000000 1.000000
vn 0.000000 0.000000 1.000000
vn 0.000000 0.000000 1.000000
vn 0.000000 1.000000 0.000000
vn 0.000000 1.000000 0.000000
vn 0.000000 1.000000 0.000000
vn 0.000000 1.000000 0.000000
vn 0.000000 0.000000 -1.000000
vn 0.000000 0.000000 -1.000000
vn 0.000000 0.000000 -1.000000
vn 0.000000 0.000000 -1.000000
vn 0.000000 -1.000000 0.000000
vn 0.000000 -1.000000 0.000000
vn 0.000000 -1.000000 0.000000
vn 0.000000 -1.000000 0.000000
vn 1.000000 0.000000 0.000000
vn 1.000000 0.000000 0.000000
vn 1.000000 0.000000 0.000000
vn 1.000000 0.000000 0.000000
vn -1.000000 0.000000 0.000000
vn -1.000000 0.000000 0.000000
vn -1.000000 0.000000 0.000000
vn -1.000000 0.000000 0.000000
s off
g pCube6
usemtl blinn2SG
f 130/157/239 131/158/240 133/160/241 132/159/242
f 132/159/243 133/160/244 135/162/245 134/161/246
f 134/161/247 135/162/248 137/164/249 136/163/250
f 136/163/251 137/164/252 131/166/253 130/165/254
f 131/158/255 137/167/256 135/168/257 133/160/258
f 136/169/259 130/157/260 132/159/261 134/170/262
