# This file uses centimeters as units for non-parametric coordinates.

mtllib laserpointer.mtl
g default
v -0.159678 0.021376 0.158137
v 0.159678 0.021376 0.158137
v -0.159678 1.225742 0.158137
v 0.159678 1.160107 0.158137
v -0.159678 1.225742 -0.158137
v 0.159678 1.160107 -0.158137
v -0.159678 0.021376 -0.158137
v 0.159678 0.021376 -0.158137
v -0.159678 0.717450 0.158137
v 0.159678 0.717450 0.158137
v 0.159678 0.717450 -0.158137
v -0.159678 0.717450 -0.158137
v -0.159678 0.935035 -0.158137
v 0.159678 0.935035 -0.158137
v 0.159678 0.935035 0.158137
v -0.159678 0.935035 0.158137
v -0.159678 0.305121 0.158137
v 0.159678 0.305121 0.158137
v 0.159678 0.305121 -0.158137
v -0.159678 0.305121 -0.158137
v 0.003800 0.021376 0.158137
v 0.003800 0.021376 -0.158137
v 0.003800 0.305121 -0.158137
v 0.003800 0.717450 -0.158137
v 0.003800 0.935035 -0.158137
v 0.003800 1.225742 -0.158137
v 0.003800 1.225742 0.158137
v 0.003800 0.935035 0.158137
v 0.003800 0.717450 0.158137
v 0.003800 0.305121 0.158137
v -0.159678 1.225742 -0.002563
v 0.003800 1.225742 -0.002563
v 0.159678 1.160107 -0.002563
v 0.159678 0.717450 -0.004666
v 0.159678 0.305121 -0.004666
v 0.159678 0.021376 -0.002563
v 0.003800 0.021376 -0.002563
v -0.159678 0.021376 -0.002563
v -0.159678 0.305121 -0.002563
v -0.159678 0.717450 -0.002563
v -0.159678 0.935035 -0.002563
v 0.518781 0.637203 -0.004435
v 0.518781 0.637203 -0.273634
v 0.518781 0.935035 -0.273634
v 0.518781 1.160107 -0.004435
v 0.518781 1.160107 -0.273634
v 0.518781 0.935035 0.273634
v 0.518781 1.160107 0.273634
v 0.518781 0.637203 0.273634
v 0.333622 0.913410 -0.001892
v 0.333622 0.792615 -0.001892
v 0.333622 0.792615 -0.116769
v 0.333622 0.913410 -0.116769
v 0.333622 1.004695 -0.001892
v 0.333622 1.004695 -0.116769
v 0.333622 0.913410 0.116769
v 0.333622 1.004695 0.116769
v 0.333622 0.792615 0.116769
vt 0.375000 0.000000
vt 0.625000 0.000000
vt 0.375000 0.250000
vt 0.625000 0.250000
vt 0.375000 0.500000
vt 0.625000 0.500000
vt 0.375000 0.750000
vt 0.625000 0.750000
vt 0.375000 1.000000
vt 0.625000 1.000000
vt 0.875000 0.000000
vt 0.875000 0.250000
vt 0.125000 0.000000
vt 0.125000 0.250000
vt 0.375000 0.135200
vt 0.625000 0.135200
vt 0.625000 0.614800
vt 0.875000 0.135200
vt 0.125000 0.135200
vt 0.375000 0.614800
vt 0.125000 0.200587
vt 0.375000 0.549413
vt 0.625000 0.549413
vt 0.875000 0.200587
vt 0.625000 0.200587
vt 0.375000 0.200587
vt 0.375000 0.062294
vt 0.625000 0.062294
vt 0.625000 0.687706
vt 0.875000 0.062294
vt 0.125000 0.062294
vt 0.375000 0.687706
vt 0.502975 0.000000
vt 0.502975 1.000000
vt 0.502975 0.750000
vt 0.502975 0.687706
vt 0.502975 0.614800
vt 0.502975 0.549413
vt 0.502975 0.500000
vt 0.502975 0.250000
vt 0.502975 0.200587
vt 0.502975 0.135200
vt 0.502975 0.062294
vt 0.247974 0.250000
vt 0.375000 0.377026
vt 0.502975 0.377026
vt 0.625000 0.377026
vt 0.752026 0.250000
vt 0.752026 0.200587
vt 0.752026 0.135200
vt 0.752026 0.062294
vt 0.625000 0.872974
vt 0.752026 0.000000
vt 0.502975 0.872974
vt 0.247974 0.000000
vt 0.375000 0.872974
vt 0.247974 0.062294
vt 0.247974 0.135200
vt 0.247974 0.200587
vt 0.752026 0.135200
vt 0.875000 0.135200
vt 0.875000 0.200587
vt 0.875000 0.250000
vt 0.752026 0.250000
vt 0.625000 0.250000
vt 0.625000 0.200587
vt 0.625000 0.135200
vt 0.752026 0.135200
vt 0.875000 0.135200
vt 0.875000 0.200587
vt 0.875000 0.250000
vt 0.752026 0.250000
vt 0.625000 0.250000
vt 0.625000 0.200587
vt 0.625000 0.135200
vn -0.000000 0.000000 1.000000
vn 0.000000 0.000000 1.000000
vn -0.163875 0.000000 0.986481
vn -0.219796 0.000000 0.975546
vn 0.201313 0.979527 0.000000
vn 0.201313 0.979527 0.000000
vn 0.101059 0.994880 0.000000
vn 0.087967 0.996123 0.000000
vn 0.000000 0.000000 -1.000000
vn 0.000000 0.000000 -1.000000
vn -0.219796 0.000000 -0.975546
vn -0.163875 0.000000 -0.986481
vn 0.000000 -1.000000 0.000000
vn 0.000000 -1.000000 0.000000
vn 0.000000 -1.000000 0.000000
vn 0.000000 -1.000000 0.000000
vn 1.000000 -0.000000 0.000000
vn 1.000000 0.000000 0.000000
vn 1.000000 0.000000 0.000001
vn 1.000000 -0.000000 0.000001
vn -1.000000 0.000000 0.000000
vn -1.000000 0.000000 0.000000
vn -1.000000 0.000000 0.000000
vn -1.000000 0.000000 0.000000
vn 0.000000 0.000000 1.000000
vn 0.000000 0.000000 1.000000
vn 1.000000 0.000000 0.000000
vn 1.000000 -0.000000 0.000000
vn 1.000000 -0.000000 0.000000
vn 1.000000 0.000000 0.000000
vn 0.000000 0.000000 -1.000000
vn 0.000000 0.000000 -1.000000
vn -1.000000 0.000000 0.000000
vn -1.000000 0.000000 0.000000
vn 0.000000 0.000000 -1.000000
vn -0.194323 0.000000 -0.980937
vn 1.000000 -0.000001 0.000000
vn 1.000000 -0.000001 0.000001
vn -0.000000 0.000000 1.000000
vn -0.194323 0.000000 0.980937
vn -1.000000 0.000000 0.000000
vn -1.000000 0.000000 0.000000
vn 0.000000 0.000000 1.000000
vn 0.000000 0.000000 1.000000
vn 1.000000 0.000000 0.000000
vn 1.000000 -0.000000 0.000000
vn 0.000000 0.000000 -1.000000
vn 0.000000 0.000000 -1.000000
vn -1.000000 0.000000 0.000000
vn -1.000000 0.000000 0.000000
vn 0.000000 -1.000000 0.000000
vn 0.000000 -1.000000 0.000000
vn 0.000000 0.000000 -1.000000
vn 0.000000 0.000000 -1.000000
vn 0.000000 0.000000 -1.000000
vn 0.000000 0.000000 -1.000000
vn 0.000000 0.000000 -1.000000
vn 0.000000 1.000000 0.000000
vn 0.000000 1.000000 0.000000
vn 0.000000 0.000000 1.000000
vn 0.000000 0.000000 1.000000
vn 0.000000 0.000000 1.000000
vn 0.000000 0.000000 1.000000
vn 0.000000 0.000000 1.000000
vn 0.000000 1.000000 0.000000
vn 0.201313 0.979527 0.000000
vn 0.087967 0.996123 0.000000
vn 1.000000 -0.000000 -0.000000
vn 1.000000 -0.000001 -0.000000
vn 1.000000 0.000000 -0.000000
vn 1.000000 0.000000 0.000000
vn 1.000000 0.000000 0.000000
vn 1.000000 0.000000 0.000000
vn 0.000000 -1.000000 0.000000
vn 0.000000 -1.000000 0.000000
vn 0.000000 -1.000000 0.000000
vn -1.000000 0.000000 0.000000
vn -1.000000 0.000000 0.000000
vn -1.000000 0.000000 0.000000
vn -1.000000 0.000000 0.000000
vn -1.000000 0.000000 0.000000
vn -0.218086 -0.975929 0.000000
vn -0.218086 -0.975929 0.000000
vn -0.218086 -0.975930 0.000000
vn -0.218086 -0.975929 0.000000
vn -0.306180 0.000000 -0.951974
vn -0.306180 0.000000 -0.951974
vn -0.306180 0.000000 -0.951974
vn 0.000000 1.000000 0.000000
vn 0.000000 1.000000 0.000000
vn 0.000000 1.000000 0.000000
vn -0.306180 0.000000 0.951974
vn -0.306180 0.000000 0.951974
vn -0.218086 -0.975930 0.000000
vn -0.218086 -0.975930 0.000000
vn -0.306180 0.000000 0.951974
vn 0.642900 0.765950 0.000000
vn 0.642900 0.765950 0.000000
vn 0.642900 0.765951 0.000000
vn 0.642900 0.765951 0.000000
vn 0.646403 -0.000000 0.762996
vn 0.646403 -0.000000 0.762996
vn 0.646403 -0.000000 0.762996
vn 0.646403 -0.000000 0.762996
vn 0.646403 0.000000 0.762996
vn 0.646403 0.000000 0.762996
vn 0.642899 -0.765951 0.000000
vn 0.642899 -0.765951 0.000000
vn 0.642899 -0.765951 0.000000
vn 0.642899 -0.765951 0.000000
vn 0.642899 -0.765951 0.000000
vn 0.642899 -0.765951 0.000000
vn 0.646404 0.000000 -0.762996
vn 0.646404 0.000000 -0.762996
vn 0.646403 0.000000 -0.762996
vn 0.646404 0.000000 -0.762996
vn 0.642900 0.765950 0.000000
vn 0.642900 0.765950 0.000000
vn 0.646403 0.000000 -0.762996
vn 0.646403 0.000000 -0.762996
s 1
g pCube1
usemtl blinn1SG
f 28/41/1 29/42/2 10/16/3 15/25/4
s 2
f 26/39/5 32/46/6 33/47/7 6/6/8
s 3
f 24/37/9 25/38/10 14/23/11 11/17/12
s 4
f 36/52/13 37/54/14 22/35/15 8/8/16
s 5
f 50/49/17 51/68/18 52/69/19 53/70/20
s 6
f 12/19/21 40/58/22 41/59/23 13/21/24
s 1
f 29/42/2 30/43/25 18/28/26 10/16/3
s 7
f 34/50/27 35/51/28 19/30/29 11/18/30
s 3
f 23/36/31 24/37/9 11/17/12 19/29/32
s 6
f 20/31/33 39/57/34 40/58/22 12/19/21
s 3
f 25/38/10 26/39/35 6/6/36 14/23/11
s 5
f 54/72/37 50/49/17 53/70/20 55/71/38
s 1
f 27/40/39 28/41/1 15/25/4 4/4/40
s 6
f 13/21/24 41/59/23 31/44/41 5/14/42
s 1
f 30/43/25 21/33/43 2/2/44 18/28/26
s 7
f 35/51/28 36/53/45 8/11/46 19/30/29
s 3
f 22/35/47 23/36/31 19/29/32 8/8/48
s 6
f 7/13/49 38/55/50 39/57/34 20/31/33
s 4
f 7/7/51 22/35/15 37/54/14 38/56/52
s 3
f 20/32/53 23/36/31 22/35/47 7/7/54
f 12/20/55 24/37/9 23/36/31 20/32/53
f 13/22/56 25/38/10 24/37/9 12/20/55
f 5/5/57 26/39/35 25/38/10 13/22/56
s 2
f 31/45/58 32/46/6 26/39/5 5/5/59
s 1
f 16/26/60 28/41/1 27/40/39 3/3/61
f 9/15/62 29/42/2 28/41/1 16/26/60
f 17/27/63 30/43/25 29/42/2 9/15/62
f 1/1/64 21/33/43 30/43/25 17/27/63
s 2
f 3/3/65 27/40/66 32/46/6 31/45/58
f 33/47/7 32/46/6 27/40/66 4/4/67
s 5
f 56/74/68 50/49/17 54/72/37 57/73/69
f 58/75/70 51/68/18 50/49/17 56/74/68
s 7
f 18/28/71 35/51/28 34/50/27 10/16/72
f 2/2/73 36/53/45 35/51/28 18/28/71
s 4
f 21/34/74 37/54/14 36/52/13 2/10/75
f 38/56/52 37/54/14 21/34/74 1/9/76
s 6
f 39/57/34 38/55/50 1/1/77 17/27/78
f 40/58/22 39/57/34 17/27/78 9/15/79
f 41/59/23 40/58/22 9/15/79 16/26/80
f 31/44/41 41/59/23 16/26/80 3/3/81
s 8
f 34/50/82 11/18/83 43/61/84 42/60/85
s 3
f 11/18/12 14/24/11 44/62/86 43/61/87
f 14/24/11 6/12/36 46/63/88 44/62/86
s 2
f 6/12/8 33/48/7 45/64/89 46/63/90
f 33/48/7 4/4/67 48/65/91 45/64/89
s 1
f 4/4/40 15/25/4 47/66/92 48/65/93
s 8
f 10/16/94 34/50/82 42/60/85 49/67/95
s 1
f 15/25/4 10/16/3 49/67/96 47/66/92
s 9
f 42/60/97 43/61/98 52/69/99 51/68/100
s 10
f 43/61/101 44/62/102 53/70/103 52/69/104
f 44/62/102 46/63/105 55/71/106 53/70/103
s 11
f 46/63/107 45/64/108 54/72/109 55/71/110
f 45/64/108 48/65/111 57/73/112 54/72/109
s 12
f 48/65/113 47/66/114 56/74/115 57/73/116
s 9
f 49/67/117 42/60/97 51/68/100 58/75/118
s 12
f 47/66/114 49/67/119 58/75/120 56/74/115
g default
v -0.159678 0.021376 0.158137
v 0.159678 0.021376 0.158137
v -0.159678 1.225742 0.158137
v 0.159678 1.160107 0.158137
v -0.159678 1.225742 -0.158137
v 0.159678 1.160107 -0.158137
v -0.159678 0.021376 -0.158137
v 0.159678 0.021376 -0.158137
v -0.159678 0.717450 0.158137
v 0.159678 0.717450 0.158137
v 0.159678 0.717450 -0.158137
v -0.159678 0.717450 -0.158137
v -0.159678 0.935035 -0.158137
v 0.159678 0.935035 -0.158137
v 0.159678 0.935035 0.158137
v -0.159678 0.935035 0.158137
v -0.159678 0.305121 0.158137
v 0.159678 0.305121 0.158137
v 0.159678 0.305121 -0.158137
v -0.159678 0.305121 -0.158137
v 0.003800 0.021376 0.158137
v 0.003800 0.021376 -0.158137
v 0.003800 0.305121 -0.158137
v 0.003800 0.717450 -0.158137
v 0.003800 0.935035 -0.158137
v 0.003800 1.225742 -0.158137
v 0.003800 1.225742 0.158137
v 0.003800 0.935035 0.158137
v 0.003800 0.717450 0.158137
v 0.003800 0.305121 0.158137
v -0.159678 1.225742 -0.002563
v 0.003800 1.225742 -0.002563
v 0.159678 1.160107 -0.002563
v 0.159678 0.717450 -0.004666
v 0.159678 0.305121 -0.004666
v 0.159678 0.021376 -0.002563
v 0.003800 0.021376 -0.002563
v -0.159678 0.021376 -0.002563
v -0.159678 0.305121 -0.002563
v -0.159678 0.717450 -0.002563
v -0.159678 0.935035 -0.002563
v 0.518781 0.637203 -0.004435
v 0.518781 0.637203 -0.273634
v 0.518781 0.935035 -0.273634
v 0.518781 1.160107 -0.004435
v 0.518781 1.160107 -0.273634
v 0.518781 0.935035 0.273634
v 0.518781 1.160107 0.273634
v 0.518781 0.637203 0.273634
v 0.333622 0.913410 -0.001892
v 0.333622 0.792615 -0.001892
v 0.333622 0.792615 -0.116769
v 0.333622 0.913410 -0.116769
v 0.333622 1.004695 -0.001892
v 0.333622 1.004695 -0.116769
v 0.333622 0.913410 0.116769
v 0.333622 1.004695 0.116769
v 0.333622 0.792615 0.116769
vt 0.375000 0.000000
vt 0.625000 0.000000
vt 0.375000 0.250000
vt 0.625000 0.250000
vt 0.375000 0.500000
vt 0.625000 0.500000
vt 0.375000 0.750000
vt 0.625000 0.750000
vt 0.375000 1.000000
vt 0.625000 1.000000
vt 0.875000 0.000000
vt 0.875000 0.250000
vt 0.125000 0.000000
vt 0.125000 0.250000
vt 0.375000 0.135200
vt 0.625000 0.135200
vt 0.625000 0.614800
vt 0.875000 0.135200
vt 0.125000 0.135200
vt 0.375000 0.614800
vt 0.125000 0.200587
vt 0.375000 0.549413
vt 0.625000 0.549413
vt 0.875000 0.200587
vt 0.625000 0.200587
vt 0.375000 0.200587
vt 0.375000 0.062294
vt 0.625000 0.062294
vt 0.625000 0.687706
vt 0.875000 0.062294
vt 0.125000 0.062294
vt 0.375000 0.687706
vt 0.502975 0.000000
vt 0.502975 1.000000
vt 0.502975 0.750000
vt 0.502975 0.687706
vt 0.502975 0.614800
vt 0.502975 0.549413
vt 0.502975 0.500000
vt 0.502975 0.250000
vt 0.502975 0.200587
vt 0.502975 0.135200
vt 0.502975 0.062294
vt 0.247974 0.250000
vt 0.375000 0.377026
vt 0.502975 0.377026
vt 0.625000 0.377026
vt 0.752026 0.250000
vt 0.752026 0.200587
vt 0.752026 0.135200
vt 0.752026 0.062294
vt 0.625000 0.872974
vt 0.752026 0.000000
vt 0.502975 0.872974
vt 0.247974 0.000000
vt 0.375000 0.872974
vt 0.247974 0.062294
vt 0.247974 0.135200
vt 0.247974 0.200587
vt 0.752026 0.135200
vt 0.875000 0.135200
vt 0.875000 0.200587
vt 0.875000 0.250000
vt 0.752026 0.250000
vt 0.625000 0.250000
vt 0.625000 0.200587
vt 0.625000 0.135200
vt 0.752026 0.135200
vt 0.875000 0.135200
vt 0.875000 0.200587
vt 0.875000 0.250000
vt 0.752026 0.250000
vt 0.625000 0.250000
vt 0.625000 0.200587
vt 0.625000 0.135200
vn -0.000000 0.000000 1.000000
vn 0.000000 0.000000 1.000000
vn -0.163875 0.000000 0.986481
vn -0.219796 0.000000 0.975546
vn 0.201313 0.979527 0.000000
vn 0.201313 0.979527 0.000000
vn 0.101059 0.994880 0.000000
vn 0.087967 0.996123 0.000000
vn 0.000000 0.000000 -1.000000
vn 0.000000 0.000000 -1.000000
vn -0.219796 0.000000 -0.975546
vn -0.163875 0.000000 -0.986481
vn 0.000000 -1.000000 0.000000
vn 0.000000 -1.000000 0.000000
vn 0.000000 -1.000000 0.000000
vn 0.000000 -1.000000 0.000000
vn 1.000000 -0.000000 0.000000
vn 1.000000 0.000000 0.000000
vn 1.000000 0.000000 0.000001
vn 1.000000 -0.000000 0.000001
vn -1.000000 0.000000 0.000000
vn -1.000000 0.000000 0.000000
vn -1.000000 0.000000 0.000000
vn -1.000000 0.000000 0.000000
vn 0.000000 0.000000 1.000000
vn 0.000000 0.000000 1.000000
vn 1.000000 0.000000 0.000000
vn 1.000000 -0.000000 0.000000
vn 1.000000 -0.000000 0.000000
vn 1.000000 0.000000 0.000000
vn 0.000000 0.000000 -1.000000
vn 0.000000 0.000000 -1.000000
vn -1.000000 0.000000 0.000000
vn -1.000000 0.000000 0.000000
vn 0.000000 0.000000 -1.000000
vn -0.194323 0.000000 -0.980937
vn 1.000000 -0.000001 0.000000
vn 1.000000 -0.000001 0.000001
vn -0.000000 0.000000 1.000000
vn -0.194323 0.000000 0.980937
vn -1.000000 0.000000 0.000000
vn -1.000000 0.000000 0.000000
vn 0.000000 0.000000 1.000000
vn 0.000000 0.000000 1.000000
vn 1.000000 0.000000 0.000000
vn 1.000000 -0.000000 0.000000
vn 0.000000 0.000000 -1.000000
vn 0.000000 0.000000 -1.000000
vn -1.000000 0.000000 0.000000
vn -1.000000 0.000000 0.000000
vn 0.000000 -1.000000 0.000000
vn 0.000000 -1.000000 0.000000
vn 0.000000 0.000000 -1.000000
vn 0.000000 0.000000 -1.000000
vn 0.000000 0.000000 -1.000000
vn 0.000000 0.000000 -1.000000
vn 0.000000 0.000000 -1.000000
vn 0.000000 1.000000 0.000000
vn 0.000000 1.000000 0.000000
vn 0.000000 0.000000 1.000000
vn 0.000000 0.000000 1.000000
vn 0.000000 0.000000 1.000000
vn 0.000000 0.000000 1.000000
vn 0.000000 0.000000 1.000000
vn 0.000000 1.000000 0.000000
vn 0.201313 0.979527 0.000000
vn 0.087967 0.996123 0.000000
vn 1.000000 -0.000000 -0.000000
vn 1.000000 -0.000001 -0.000000
vn 1.000000 0.000000 -0.000000
vn 1.000000 0.000000 0.000000
vn 1.000000 0.000000 0.000000
vn 1.000000 0.000000 0.000000
vn 0.000000 -1.000000 0.000000
vn 0.000000 -1.000000 0.000000
vn 0.000000 -1.000000 0.000000
vn -1.000000 0.000000 0.000000
vn -1.000000 0.000000 0.000000
vn -1.000000 0.000000 0.000000
vn -1.000000 0.000000 0.000000
vn -1.000000 0.000000 0.000000
vn -0.218086 -0.975929 0.000000
vn -0.218086 -0.975929 0.000000
vn -0.218086 -0.975930 0.000000
vn -0.218086 -0.975929 0.000000
vn -0.306180 0.000000 -0.951974
vn -0.306180 0.000000 -0.951974
vn -0.306180 0.000000 -0.951974
vn 0.000000 1.000000 0.000000
vn 0.000000 1.000000 0.000000
vn 0.000000 1.000000 0.000000
vn -0.306180 0.000000 0.951974
vn -0.306180 0.000000 0.951974
vn -0.218086 -0.975930 0.000000
vn -0.218086 -0.975930 0.000000
vn -0.306180 0.000000 0.951974
vn 0.642900 0.765950 0.000000
vn 0.642900 0.765950 0.000000
vn 0.642900 0.765951 0.000000
vn 0.642900 0.765951 0.000000
vn 0.646403 -0.000000 0.762996
vn 0.646403 -0.000000 0.762996
vn 0.646403 -0.000000 0.762996
vn 0.646403 -0.000000 0.762996
vn 0.646403 0.000000 0.762996
vn 0.646403 0.000000 0.762996
vn 0.642899 -0.765951 0.000000
vn 0.642899 -0.765951 0.000000
vn 0.642899 -0.765951 0.000000
vn 0.642899 -0.765951 0.000000
vn 0.642899 -0.765951 0.000000
vn 0.642899 -0.765951 0.000000
vn 0.646404 0.000000 -0.762996
vn 0.646404 0.000000 -0.762996
vn 0.646403 0.000000 -0.762996
vn 0.646404 0.000000 -0.762996
vn 0.642900 0.765950 0.000000
vn 0.642900 0.765950 0.000000
vn 0.646403 0.000000 -0.762996
vn 0.646403 0.000000 -0.762996
s 1
g pCube1
f 86/116/121 87/117/122 68/91/123 73/100/124
s 2
f 84/114/125 90/121/126 91/122/127 64/81/128
s 3
f 82/112/129 83/113/130 72/98/131 69/92/132
s 4
f 94/127/133 95/129/134 80/110/135 66/83/136
s 5
f 108/124/137 109/143/138 110/144/139 111/145/140
s 6
f 70/94/141 98/133/142 99/134/143 71/96/144
s 1
f 87/117/122 88/118/145 76/103/146 68/91/123
s 7
f 92/125/147 93/126/148 77/105/149 69/93/150
s 3
f 81/111/151 82/112/129 69/92/132 77/104/152
s 6
f 78/106/153 97/132/154 98/133/142 70/94/141
s 3
f 83/113/130 84/114/155 64/81/156 72/98/131
s 5
f 112/147/157 108/124/137 111/145/140 113/146/158
s 1
f 85/115/159 86/116/121 73/100/124 62/79/160
s 6
f 71/96/144 99/134/143 89/119/161 63/89/162
s 1
f 88/118/145 79/108/163 60/77/164 76/103/146
s 7
f 93/126/148 94/128/165 66/86/166 77/105/149
s 3
f 80/110/167 81/111/151 77/104/152 66/83/168
s 6
f 65/88/169 96/130/170 97/132/154 78/106/153
s 4
f 65/82/171 80/110/135 95/129/134 96/131/172
s 3
f 78/107/173 81/111/151 80/110/167 65/82/174
f 70/95/175 82/112/129 81/111/151 78/107/173
f 71/97/176 83/113/130 82/112/129 70/95/175
f 63/80/177 84/114/155 83/113/130 71/97/176
s 2
f 89/120/178 90/121/126 84/114/125 63/80/179
s 1
f 74/101/180 86/116/121 85/115/159 61/78/181
f 67/90/182 87/117/122 86/116/121 74/101/180
f 75/102/183 88/118/145 87/117/122 67/90/182
f 59/76/184 79/108/163 88/118/145 75/102/183
s 2
f 61/78/185 85/115/186 90/121/126 89/120/178
f 91/122/127 90/121/126 85/115/186 62/79/187
s 5
f 114/149/188 108/124/137 112/147/157 115/148/189
f 116/150/190 109/143/138 108/124/137 114/149/188
s 7
f 76/103/191 93/126/148 92/125/147 68/91/192
f 60/77/193 94/128/165 93/126/148 76/103/191
s 4
f 79/109/194 95/129/134 94/127/133 60/85/195
f 96/131/172 95/129/134 79/109/194 59/84/196
s 6
f 97/132/154 96/130/170 59/76/197 75/102/198
f 98/133/142 97/132/154 75/102/198 67/90/199
f 99/134/143 98/133/142 67/90/199 74/101/200
f 89/119/161 99/134/143 74/101/200 61/78/201
s 8
f 92/125/202 69/93/203 101/136/204 100/135/205
s 3
f 69/93/132 72/99/131 102/137/206 101/136/207
f 72/99/131 64/87/156 104/138/208 102/137/206
s 2
f 64/87/128 91/123/127 103/139/209 104/138/210
f 91/123/127 62/79/187 106/140/211 103/139/209
s 1
f 62/79/160 73/100/124 105/141/212 106/140/213
s 8
f 68/91/214 92/125/202 100/135/205 107/142/215
s 1
f 73/100/124 68/91/123 107/142/216 105/141/212
s 9
f 100/135/217 101/136/218 110/144/219 109/143/220
s 10
f 101/136/221 102/137/222 111/145/223 110/144/224
f 102/137/222 104/138/225 113/146/226 111/145/223
s 11
f 104/138/227 103/139/228 112/147/229 113/146/230
f 103/139/228 106/140/231 115/148/232 112/147/229
s 12
f 106/140/233 105/141/234 114/149/235 115/148/236
s 9
f 107/142/237 100/135/217 109/143/220 116/150/238
s 12
f 105/141/234 107/142/239 116/150/240 114/149/235
